<svg width="219" height="193" viewBox="0 0 219 193" fill="none" xmlns="http://www.w3.org/2000/svg">
<path d="M92.873 180.09L151.926 170.397C152.102 171.47 151.356 172.486 150.26 172.666L95.1769 181.707C94.0806 181.887 93.0491 181.163 92.873 180.09Z" fill="white"/>
<path d="M99.2105 151.92L136.817 145.747C136.817 145.747 139.609 161.823 142.766 165.451C145.922 169.079 151.926 170.397 151.926 170.397L92.8733 180.09C92.8733 180.09 97.8543 176.866 99.2977 173.046C100.741 169.226 99.2105 151.92 99.2105 151.92Z" fill="url(#paint0_linear)"/>
<g filter="url(#filter0_i)">
<path d="M0.975142 38.2912C0.436586 35.01 2.65994 31.9135 5.94114 31.375L186.552 1.73066C189.833 1.1921 192.929 3.41545 193.468 6.69665L213.231 127.104C213.769 130.385 211.546 133.481 208.265 134.02L27.6543 163.664C24.3731 164.203 21.2766 161.979 20.738 158.698L0.975142 38.2912Z" fill="white"/>
</g>
<mask id="mask0" mask-type="alpha" maskUnits="userSpaceOnUse" x="8" y="9" width="195" height="130">
<path d="M8.56445 38.6729L186.403 9.48361L202.785 109.295L24.9468 138.484L8.56445 38.6729Z" fill="#C4C4C4"/>
</mask>
<g mask="url(#mask0)">
<path d="M8.08398 35.4116L185.632 6.27006L203.805 116.994L26.2576 146.136L8.08398 35.4116Z" fill="white"/>
<path d="M187.307 8.60195L8.12109 39.3975L23.4372 138.567L202.623 107.772L187.307 8.60195Z" fill="white"/>
<path d="M186.358 8.60249L8.11914 38.4521L10.7117 54.899L188.95 25.0493L186.358 8.60249Z" fill="#C4C4C4"/>
<path d="M189.819 25.8109L127.83 36.481L140.633 119.467L202.621 108.797L189.819 25.8109Z" fill="white"/>
<path d="M19.573 49.4672C22.2234 49.0106 24.0477 46.538 23.6478 43.9443C23.248 41.3507 20.7753 39.6182 18.125 40.0747C15.4747 40.5313 13.6503 43.0039 14.0502 45.5976C14.4501 48.1912 16.9227 49.9237 19.573 49.4672Z" fill="white"/>
<path d="M185.593 32.8174L133.594 41.7612L138.553 73.8898L190.552 64.946L185.593 32.8174Z" fill="#F7F7F7"/>
<path d="M124.696 41.3212L16.4492 59.9492L27.7269 133.046L135.974 114.418L124.696 41.3212Z" fill="#F7F7F7"/>
<path d="M133.738 100.661L26.1465 118.786L28.3838 133.046L135.975 114.92L133.738 100.661Z" fill="#FEECC1"/>
<path d="M189.477 58.333L137.762 67.0449L138.836 73.8893L190.551 65.1774L189.477 58.333Z" fill="#EDEDED"/>
<path d="M191.896 71.3882L139.896 80.332L144.855 112.461L196.855 103.517L191.896 71.3882Z" fill="#F7F7F7"/>
<path d="M195.782 96.9043L144.066 105.616L145.14 112.461L196.856 103.749L195.782 96.9043Z" fill="#EDEDED"/>
</g>
<defs>
<filter id="filter0_i" x="0" y="0.755371" width="214.206" height="167.884" filterUnits="userSpaceOnUse" color-interpolation-filters="sRGB">
<feFlood flood-opacity="0" result="BackgroundImageFix"/>
<feBlend mode="normal" in="SourceGraphic" in2="BackgroundImageFix" result="shape"/>
<feColorMatrix in="SourceAlpha" type="matrix" values="0 0 0 0 0 0 0 0 0 0 0 0 0 0 0 0 0 0 127 0" result="hardAlpha"/>
<feOffset dy="4"/>
<feGaussianBlur stdDeviation="85"/>
<feComposite in2="hardAlpha" operator="arithmetic" k2="-1" k3="1"/>
<feColorMatrix type="matrix" values="0 0 0 0 0.756863 0 0 0 0 0.827451 0 0 0 0 0.909804 0 0 0 1 0"/>
<feBlend mode="normal" in2="shape" result="effect1_innerShadow"/>
</filter>
<linearGradient id="paint0_linear" x1="122.4" y1="175.244" x2="118.064" y2="148.825" gradientUnits="userSpaceOnUse">
<stop stop-color="#F1F6FF"/>
<stop offset="0.325803" stop-color="white"/>
<stop offset="0.562308" stop-color="#F7FAFF"/>
<stop offset="1" stop-color="#D9E4F6"/>
</linearGradient>
</defs>
</svg>
