<svg width="9" height="13" viewBox="0 0 9 13" fill="none" xmlns="http://www.w3.org/2000/svg">
<path fill-rule="evenodd" clip-rule="evenodd" d="M4.30107 9.63105C6.67649 9.63105 8.60215 7.573 8.60215 5.03427C8.60215 2.49555 6.67649 0.4375 4.30107 0.4375C1.92566 0.4375 0 2.49555 0 5.03427C0 7.573 1.92566 9.63105 4.30107 9.63105ZM4.30147 7.33258C5.69877 7.33258 6.83151 6.18922 6.83151 4.77882C6.83151 3.36842 5.69877 2.22506 4.30147 2.22506C2.90416 2.22506 1.77142 3.36842 1.77142 4.77882C1.77142 6.18922 2.90416 7.33258 4.30147 7.33258Z" fill="white"/>
<path d="M4.42683 12.6953L7.71589 7.84316H0.884766L4.42683 12.6953Z" fill="white"/>
</svg>
