<svg width="190" height="193" viewBox="0 0 190 193" fill="none" xmlns="http://www.w3.org/2000/svg">
<path fill-rule="evenodd" clip-rule="evenodd" d="M47.3574 167.295L97.9053 193L152.146 167.997V158.659L97.9053 150.364L47.4509 156.94L47.3574 167.295Z" fill="#071121"/>
<path fill-rule="evenodd" clip-rule="evenodd" d="M47.3574 156.977L97.9053 179.647L152.146 158.658L97.9053 137.012L47.3574 156.977Z" fill="#0C1D39"/>
<path fill-rule="evenodd" clip-rule="evenodd" d="M97.9043 157.788V179.648L152.146 158.659L97.9043 157.788Z" fill="#0A1930"/>
<path fill-rule="evenodd" clip-rule="evenodd" d="M74.0156 154.272L95.5501 163.931L118.658 154.989V140.617L95.5501 145.767L74.0156 145.292V154.272Z" fill="#0B1B34"/>
<path fill-rule="evenodd" clip-rule="evenodd" d="M74.0156 154.273L81.2324 148.26L74.0156 145.292V154.273Z" fill="#0C1F3C"/>
<path fill-rule="evenodd" clip-rule="evenodd" d="M84.6211 147.908L95.5506 163.93V145.767L84.6211 147.908Z" fill="#0C1F3C"/>
<path fill-rule="evenodd" clip-rule="evenodd" d="M95.5508 145.767V163.931L118.659 154.989V140.617L95.5508 145.767Z" fill="#0E2445"/>
<path fill-rule="evenodd" clip-rule="evenodd" d="M118.658 140.617L109.648 145.767L118.658 154.989V140.617Z" fill="#133260"/>
<path fill-rule="evenodd" clip-rule="evenodd" d="M95.5508 145.767V163.93L103.009 150.465L95.5508 145.767Z" fill="#133260"/>
<path fill-rule="evenodd" clip-rule="evenodd" d="M79.0847 140.574L91.306 136.695L93.1099 128.951L130.964 112.699L133.126 120.677L133.888 128.112C133.662 130.918 134.339 135.72 133.156 138.182C132.033 140.52 128.25 140.54 125.88 142.43L88.2804 155.795C83.489 156.128 80.2888 153.924 78.1484 150.014L79.0847 140.574Z" fill="#071121"/>
<path fill-rule="evenodd" clip-rule="evenodd" d="M91.9015 134.15L133.445 137.417C128.207 142.682 104.927 149.983 88.2804 155.794C83.489 156.127 80.2888 153.923 78.1484 150.013L79.0847 140.574L91.306 136.694L91.9015 134.15Z" fill="#040B15"/>
<path fill-rule="evenodd" clip-rule="evenodd" d="M85.0586 138.169L86.2375 136.694H107.85L109.028 138.169H85.0586Z" fill="#050E1A"/>
<path d="M109.302 138.815H84.791V144.034H109.302V138.815Z" fill="#060F1D"/>
<path d="M97.0618 141.899C103.83 141.899 109.317 140.519 109.317 138.817C109.317 137.114 103.83 135.734 97.0618 135.734C90.2933 135.734 84.8066 137.114 84.8066 138.817C84.8066 140.519 90.2933 141.899 97.0618 141.899Z" fill="#060F1D"/>
<path d="M97.0618 147.117C103.83 147.117 109.317 145.737 109.317 144.035C109.317 142.332 103.83 140.952 97.0618 140.952C90.2933 140.952 84.8066 142.332 84.8066 144.035C84.8066 145.737 90.2933 147.117 97.0618 147.117Z" fill="#060F1D"/>
<path d="M97.0434 139.412C103.011 139.412 107.849 138.195 107.849 136.694C107.849 135.193 103.011 133.977 97.0434 133.977C91.0758 133.977 86.2383 135.193 86.2383 136.694C86.2383 138.195 91.0758 139.412 97.0434 139.412Z" fill="#081426"/>
<path fill-rule="evenodd" clip-rule="evenodd" d="M54.2963 10.124L89.4913 134.79L77.245 138.039L44.3477 19.503L54.2963 10.124Z" fill="#0E3B82"/>
<path fill-rule="evenodd" clip-rule="evenodd" d="M54.1777 9.69798L56.4242 9.27246L124.019 126.149L89.6108 135.215L82.2875 137.158L48.4668 15.0838L54.1777 9.69798Z" fill="#082149"/>
<path fill-rule="evenodd" clip-rule="evenodd" d="M54.1777 9.69824L89.6108 135.215L82.2875 137.158L48.4668 15.0841L54.1777 9.69824Z" fill="#0A2C60"/>
<path fill-rule="evenodd" clip-rule="evenodd" d="M63.4805 127.452C63.4805 127.452 78.1144 65.1607 78.3314 78.6204L80.3098 146.35C80.7906 155.017 87.0503 155.911 93.2629 153.09L129.113 139.946C131.296 138.974 133.134 137.783 133.126 134.263V119.287L135.019 119.717V133.333C135.19 139.163 132.747 140.781 128.973 142.434L87.0504 156.883C85.3696 157.132 83.6588 156.521 81.6886 155.725L63.4805 127.452Z" fill="#071E41"/>
<path fill-rule="evenodd" clip-rule="evenodd" d="M54.2969 10.1237L89.4918 134.79L109.683 129.431L96.3301 82.0098L95.4408 81.4464L71.6627 1.35156C62.6544 2.32303 58.3096 6.1221 54.2969 10.1237Z" fill="#114AA4"/>
<path fill-rule="evenodd" clip-rule="evenodd" d="M71.6641 1.35199C85.1829 0.224785 102.225 -0.302011 114.004 2.42261L135.696 74.7895L136.726 75.7367L148.228 117.143C147.177 119.453 123.259 127.153 109.684 129.432L96.3315 82.0102L71.6641 1.35199Z" fill="#1761D6"/>
<path fill-rule="evenodd" clip-rule="evenodd" d="M95.4417 81.4458L94.3691 77.837L134.666 71.6895L135.696 74.7885L136.726 75.7358C122.271 77.5429 108.501 79.6927 96.3309 82.0092L95.4417 81.4458Z" fill="#1F6DE7"/>
<path fill-rule="evenodd" clip-rule="evenodd" d="M54.2969 10.1237L76.9219 90.2688C80.7686 86.7561 87.6667 83.1736 93.7687 81.7766C94.3346 81.6472 94.8919 81.5366 95.4408 81.4464L71.6627 1.35156C71.0372 1.41922 70.4326 1.5005 69.8496 1.59411C62.0541 2.85195 58.033 6.40039 54.2969 10.1237Z" fill="#0E3B82"/>
<path fill-rule="evenodd" clip-rule="evenodd" d="M86.4666 51.2168L95.4408 81.4468L76.9219 90.2691L68.5859 60.7379L86.4666 51.2168Z" fill="#0F418F"/>
<path fill-rule="evenodd" clip-rule="evenodd" d="M71.6641 1.35199C85.1829 0.224785 102.225 -0.302011 114.004 2.42261L135.696 74.7895C118.65 76.5252 105.57 78.7894 95.4422 81.4468L71.6641 1.35199Z" fill="#1350B1"/>
<path fill-rule="evenodd" clip-rule="evenodd" d="M86.4668 51.2168L128.798 75.5452C115.24 77.4115 105.122 79.3034 95.441 81.4468L86.4668 51.2168Z" fill="#1149A2"/>
<path fill-rule="evenodd" clip-rule="evenodd" d="M53.7617 54.0227L56.3149 52.7461L76.5783 63.1952L78.2633 145.688C79.0548 153.979 83.8293 157.289 87.0505 156.883C85.408 157.236 83.2843 156.581 80.3099 155.093L73.8294 151.539L53.7617 54.0227Z" fill="#0A295B"/>
<path fill-rule="evenodd" clip-rule="evenodd" d="M53.7617 54.0227L56.3149 52.7461L76.5783 63.1952L74.1274 64.4726L53.7617 54.0227Z" fill="#0B3577"/>
<path fill-rule="evenodd" clip-rule="evenodd" d="M57.153 141.505L53.7617 54.0234L74.1274 64.4734L75.8207 144.676C76.1484 150.112 77.4717 152.962 80.3099 155.094C80.3099 155.094 56.7658 147.652 57.153 141.505Z" fill="#0D3678"/>
<path fill-rule="evenodd" clip-rule="evenodd" d="M53.7617 54.0234L55.1659 86.527L74.1274 64.4734L53.7617 54.0234Z" fill="#0E3C85"/>
<path fill-rule="evenodd" clip-rule="evenodd" d="M53.7617 54.0234L74.8675 96.4778L74.1274 64.4734L53.7617 54.0234Z" fill="#104597"/>
<path d="M66.0871 87.7577C70.15 87.113 72.7 81.3499 71.7826 74.8856C70.8652 68.4212 66.8278 63.7035 62.7648 64.3482C58.7019 64.993 56.1519 70.756 57.0693 77.2204C57.9867 83.6847 62.0241 88.4024 66.0871 87.7577Z" fill="#1F52A3"/>
<path fill-rule="evenodd" clip-rule="evenodd" d="M95.4414 81.4468L127.283 46.7275L135.696 74.7895C122.066 76.3711 108.684 78.7098 95.4414 81.4468Z" fill="#104597"/>
<path fill-rule="evenodd" clip-rule="evenodd" d="M124.019 126.149L119.309 110.094L133.325 106.265L138.032 121.84C133.517 123.663 128.806 125 124.019 126.149Z" fill="#1F6DE7"/>
</svg>
