<svg width="224" height="194" viewBox="0 0 224 194" fill="none" xmlns="http://www.w3.org/2000/svg">
<mask id="mask0" mask-type="alpha" maskUnits="userSpaceOnUse" x="0" y="0" width="224" height="194">
<path d="M0 0H224V193.432H0V0Z" fill="#1C307A"/>
</mask>
<g mask="url(#mask0)">
<g clip-path="url(#clip0)">
<path fill-rule="evenodd" clip-rule="evenodd" d="M153.001 166.641L166.567 186.415L177.349 197L180.043 126.608L153.001 166.641Z" fill="#072047"/>
<path fill-rule="evenodd" clip-rule="evenodd" d="M172.79 130.241L184.547 122.465L170.064 157.107L172.79 130.241Z" fill="#0D397D"/>
<path fill-rule="evenodd" clip-rule="evenodd" d="M150.354 359.291L120.638 359.852L133.532 176.275L143.842 196.408L150.354 359.291Z" fill="#172F53"/>
<path fill-rule="evenodd" clip-rule="evenodd" d="M155.944 36.4891L164.349 46.0322L158.175 47.1563L150.59 36.4915L155.944 36.4891Z" fill="#F2AD00"/>
<path fill-rule="evenodd" clip-rule="evenodd" d="M158.18 47.1564L164.353 46.0325L159.329 55.2104L155.603 55.8595L158.18 47.1564Z" fill="#D89A00"/>
<path fill-rule="evenodd" clip-rule="evenodd" d="M179.766 194.449L184.004 200.976L167.738 193.679L166.568 186.415L179.766 194.449Z" fill="#739BDB"/>
<path fill-rule="evenodd" clip-rule="evenodd" d="M166.567 186.415L143.841 196.408L141.942 203.215L167.736 193.679L166.567 186.415Z" fill="#8AACE1"/>
<path fill-rule="evenodd" clip-rule="evenodd" d="M161.569 157.188L166.568 186.415L143.842 196.408L115.78 141.872L141.459 127.424L161.569 157.188Z" fill="#0A2D63"/>
<path fill-rule="evenodd" clip-rule="evenodd" d="M153.751 96.6279L132.342 98.7703L111.192 115.128L153.751 158.219L170.062 157.107L177.271 103.855L153.751 96.6279Z" fill="#10479C"/>
<path fill-rule="evenodd" clip-rule="evenodd" d="M153.752 158.219L137.602 141.871L122.55 144.351L153.752 158.219Z" fill="#0D397D"/>
<path fill-rule="evenodd" clip-rule="evenodd" d="M111.193 115.129L137.602 141.872L107.492 146.832L111.193 115.129Z" fill="#1457C1"/>
<path fill-rule="evenodd" clip-rule="evenodd" d="M111.193 115.129L101.794 195.684L92.5951 140.369L111.193 115.129Z" fill="#4385EB"/>
<path fill-rule="evenodd" clip-rule="evenodd" d="M92.5961 140.369L79.9538 192.593L101.795 195.684L92.5961 140.369Z" fill="#1F6EE7"/>
<path fill-rule="evenodd" clip-rule="evenodd" d="M66.2393 240.373L79.9537 192.593L101.795 195.683L66.2393 240.373Z" fill="#155CC9"/>
<path fill-rule="evenodd" clip-rule="evenodd" d="M111.192 115.129L132.342 98.7705L123.815 100.995L111.192 115.129Z" fill="#0E3C85"/>
<path fill-rule="evenodd" clip-rule="evenodd" d="M144.127 75.8105L134.579 76.4572L132.344 98.7705L153.752 96.6281L144.127 75.8105Z" fill="#0B326E"/>
<path fill-rule="evenodd" clip-rule="evenodd" d="M130.14 76.4682L134.578 76.457L132.343 98.7703L123.816 100.995L130.14 76.4682Z" fill="#0E3C85"/>
<path fill-rule="evenodd" clip-rule="evenodd" d="M137.449 23.5768L149.473 30.6833L148.138 35.4819L130.716 37.0213L121.185 33.1212L121.742 24.1421L137.449 23.5768Z" fill="#5597FF"/>
<path fill-rule="evenodd" clip-rule="evenodd" d="M148.138 35.4895L149.474 30.6887L159.315 46.5935L161.955 70.0411L159.308 67.3675L148.138 35.4895Z" fill="#1C6BE7"/>
<path fill-rule="evenodd" clip-rule="evenodd" d="M121.742 24.1367L106.599 35.3728L103.229 43.2342L121.182 33.1177L121.742 24.1367Z" fill="#277BFF"/>
<path fill-rule="evenodd" clip-rule="evenodd" d="M130.72 37.026L129.593 69.0487L159.321 67.3583L148.144 35.4864L130.72 37.026Z" fill="#1761D6"/>
<path fill-rule="evenodd" clip-rule="evenodd" d="M159.319 67.3622L129.596 69.0524L114.454 76.3509L129.592 78.5928L149.842 76.3135L161.965 70.0348L159.319 67.3622Z" fill="#134FAE"/>
<path fill-rule="evenodd" clip-rule="evenodd" d="M130.722 37.0222L129.595 69.0443L114.45 76.3447L101.554 65.6815L108.286 57.261L103.236 43.2305L121.191 33.1217L130.722 37.0222Z" fill="#1C6BE7"/>
<path fill-rule="evenodd" clip-rule="evenodd" d="M103.238 43.2274L108.283 57.2606L103.232 57.2641L98.2137 43.2294L103.238 43.2274Z" fill="#F2AD00"/>
<path fill-rule="evenodd" clip-rule="evenodd" d="M103.239 57.2627L108.288 57.259L101.555 65.6831L98.2051 65.6868L103.239 57.2627Z" fill="#D89A00"/>
<path fill-rule="evenodd" clip-rule="evenodd" d="M98.2165 43.2255L98.2008 65.6856L103.236 57.2602L98.2165 43.2255Z" fill="#FFBE1B"/>
<path fill-rule="evenodd" clip-rule="evenodd" d="M177.273 103.855L189.611 127.424L172.79 130.241L177.273 103.855Z" fill="#1457C1"/>
<path fill-rule="evenodd" clip-rule="evenodd" d="M177.273 103.855L229.424 73.5186L189.611 127.424L177.273 103.855Z" fill="#4385EB"/>
<path fill-rule="evenodd" clip-rule="evenodd" d="M229.424 73.5185L215.406 68.4873L169.74 101.515L177.273 103.855L229.424 73.5185Z" fill="#1F6EE7"/>
<path fill-rule="evenodd" clip-rule="evenodd" d="M229.424 73.5186L227.744 58.9612L175.593 28.6279L229.424 73.5186Z" fill="#155CC9"/>
<path fill-rule="evenodd" clip-rule="evenodd" d="M229.424 73.5188L215.406 68.4875L161.568 24.7305L175.593 28.6281L229.424 73.5188Z" fill="#11479C"/>
</g>
</g>
<defs>
<clipPath id="clip0">
<rect width="235.526" height="387.365" fill="white" transform="matrix(-1 0 0 1 268.098 23.5762)"/>
</clipPath>
</defs>
</svg>
