<svg width="262" height="207" viewBox="0 0 262 207" fill="none" xmlns="http://www.w3.org/2000/svg">
<path d="M92.873 204.287L151.926 194.595V194.595C152.102 195.667 151.356 196.683 150.26 196.863L95.1769 205.904C94.0806 206.084 93.0491 205.36 92.873 204.287V204.287Z" fill="white"/>
<path d="M99.2105 176.117L136.817 169.944C136.817 169.944 139.609 186.02 142.766 189.648C145.922 193.276 151.926 194.595 151.926 194.595L92.8733 204.287C92.8733 204.287 97.8543 201.064 99.2977 197.244C100.741 193.423 99.2105 176.117 99.2105 176.117Z" fill="url(#paint0_linear)"/>
<g filter="url(#filter0_i)">
<path d="M0.975142 62.4885C0.436586 59.2073 2.65994 56.1108 5.94114 55.5722L186.552 25.9279C189.833 25.3894 192.929 27.6127 193.468 30.8939L213.231 151.301C213.769 154.582 211.546 157.679 208.265 158.217L27.6543 187.862C24.3731 188.4 21.2766 186.177 20.738 182.896L0.975142 62.4885Z" fill="white"/>
</g>
<mask id="mask0" mask-type="alpha" maskUnits="userSpaceOnUse" x="8" y="33" width="195" height="130">
<path d="M8.56445 62.8701L186.403 33.6809L202.785 133.492L24.9468 162.681L8.56445 62.8701Z" fill="#C4C4C4"/>
</mask>
<g mask="url(#mask0)">
<path d="M8.08398 59.6094L185.632 30.4678L203.805 141.192L26.2576 170.334L8.08398 59.6094Z" fill="white"/>
</g>
<mask id="mask1" mask-type="alpha" maskUnits="userSpaceOnUse" x="8" y="33" width="197" height="141">
<path d="M8.59375 62.7173L186.141 33.5757L204.315 144.3L26.7674 173.442L8.59375 62.7173Z" fill="white"/>
</mask>
<g mask="url(#mask1)">
<path d="M187.307 32.7992L8.12109 63.5947L23.4372 162.765L202.623 131.969L187.307 32.7992Z" fill="white"/>
<path d="M186.358 32.7998L8.11914 62.6494L10.7117 79.0962L188.95 49.2466L186.358 32.7998Z" fill="#C4C4C4"/>
<path d="M189.819 50.0082L127.83 60.6782L140.633 143.664L202.621 132.994L189.819 50.0082Z" fill="white"/>
<path d="M19.573 73.6644C22.2234 73.2079 24.0477 70.7352 23.6478 68.1416C23.248 65.5479 20.7753 63.8155 18.125 64.272C15.4747 64.7285 13.6503 67.2012 14.0502 69.7948C14.4501 72.3885 16.9227 74.121 19.573 73.6644Z" fill="white"/>
<path d="M185.593 57.0147L133.594 65.9585L138.553 98.087L190.552 89.1432L185.593 57.0147Z" fill="#F7F7F7"/>
<path d="M124.696 65.5185L16.4492 84.1465L27.7269 157.243L135.974 138.615L124.696 65.5185Z" fill="#F7F7F7"/>
<path d="M133.738 124.858L26.1465 142.983L28.3838 157.243L135.975 139.118L133.738 124.858Z" fill="#FEECC1"/>
<path d="M189.477 82.5303L137.762 91.2422L138.836 98.0866L190.551 89.3747L189.477 82.5303Z" fill="#EDEDED"/>
<path d="M191.896 95.5855L139.896 104.529L144.855 136.658L196.855 127.714L191.896 95.5855Z" fill="#F7F7F7"/>
<path d="M195.782 121.102L144.066 129.813L145.14 136.658L196.856 127.946L195.782 121.102Z" fill="#EDEDED"/>
</g>
<path fill-rule="evenodd" clip-rule="evenodd" d="M131.328 67.3555L143.956 73.5864L163.552 70.0703L131.328 67.3555Z" fill="#FFD97A"/>
<path fill-rule="evenodd" clip-rule="evenodd" d="M152.856 102.587L144.017 73.602L163.613 70.0859L152.856 102.587Z" fill="#F2AD00"/>
<path fill-rule="evenodd" clip-rule="evenodd" d="M152.87 102.562L144.031 73.5769L103.812 113.571L152.87 102.562Z" fill="#EF9A00"/>
<path fill-rule="evenodd" clip-rule="evenodd" d="M131.404 67.3527L144.032 73.5836L103.813 113.578L131.404 67.3527Z" fill="#FFB632"/>
<path fill-rule="evenodd" clip-rule="evenodd" d="M199.377 57.4594L225.118 61.7585L257.187 3.89387L255.795 1.27887L194.312 52.812L199.377 57.4594Z" fill="#1765DE"/>
<path fill-rule="evenodd" clip-rule="evenodd" d="M199.452 57.4585L225.194 61.7576L200.751 80.3062L163.048 72.5157L199.452 57.4585Z" fill="#1353B7"/>
<path fill-rule="evenodd" clip-rule="evenodd" d="M162.064 67.8059L186.035 60.799C183.366 69.8387 181.85 79.332 178.881 87.5695L175.709 96.6969C166.127 103.779 156.83 110.118 148.015 115.215C152.04 99.2186 156.409 83.3237 162.064 67.8059Z" fill="#3179E9"/>
<path fill-rule="evenodd" clip-rule="evenodd" d="M162.064 67.8059L186.035 60.799C183.366 69.8387 180.678 78.8338 177.71 87.0713L175.709 96.6969C166.127 103.779 156.83 110.118 148.015 115.215C152.04 99.2186 156.409 83.3237 162.064 67.8059Z" fill="#4888EC"/>
<path fill-rule="evenodd" clip-rule="evenodd" d="M162.823 48.8708L139.305 46.8745L114.964 65.7103L160.03 70.1905L162.823 48.8708Z" fill="#689DEF"/>
<path fill-rule="evenodd" clip-rule="evenodd" d="M160.813 71.0627L194.852 60.4858L222.052 42.3889L255.913 3.73565L255.823 1.27773L159.082 69.2162L160.813 71.0627Z" fill="#2471E8"/>
<path fill-rule="evenodd" clip-rule="evenodd" d="M160.813 71.0627L193.054 57.9431L220.947 40.858L255.913 3.73565L255.823 1.27773L159.082 69.2162L160.813 71.0627Z" fill="#4183EB"/>
<path fill-rule="evenodd" clip-rule="evenodd" d="M192.772 9.49414L185.017 51.0212L255.853 1.27493L254.225 0.10676L192.772 9.49414Z" fill="#4E8CEC"/>
<path fill-rule="evenodd" clip-rule="evenodd" d="M192.741 9.4891L184.986 51.0161L159.081 69.2084L166.599 28.129L192.741 9.4891Z" fill="#4888EC"/>
<path fill-rule="evenodd" clip-rule="evenodd" d="M156.698 63.9038L185.005 51.032L174.332 62.9095L144.986 80.282C138.819 82.2458 132.617 83.2451 126.367 82.9797C126.925 77.7217 138.567 72.0547 156.698 63.9038Z" fill="#79A8F1"/>
<path fill-rule="evenodd" clip-rule="evenodd" d="M185.005 51.032L174.332 62.9095L144.986 80.282C138.819 82.2458 132.617 83.2451 126.367 82.9797L185.005 51.032Z" fill="#5D96EE"/>
<defs>
<filter id="filter0_i" x="0" y="24.9526" width="214.206" height="167.884" filterUnits="userSpaceOnUse" color-interpolation-filters="sRGB">
<feFlood flood-opacity="0" result="BackgroundImageFix"/>
<feBlend mode="normal" in="SourceGraphic" in2="BackgroundImageFix" result="shape"/>
<feColorMatrix in="SourceAlpha" type="matrix" values="0 0 0 0 0 0 0 0 0 0 0 0 0 0 0 0 0 0 127 0" result="hardAlpha"/>
<feOffset dy="4"/>
<feGaussianBlur stdDeviation="85"/>
<feComposite in2="hardAlpha" operator="arithmetic" k2="-1" k3="1"/>
<feColorMatrix type="matrix" values="0 0 0 0 0.756863 0 0 0 0 0.827451 0 0 0 0 0.909804 0 0 0 1 0"/>
<feBlend mode="normal" in2="shape" result="effect1_innerShadow"/>
</filter>
<linearGradient id="paint0_linear" x1="122.4" y1="199.441" x2="118.064" y2="173.022" gradientUnits="userSpaceOnUse">
<stop stop-color="#F1F6FF"/>
<stop offset="0.325803" stop-color="white"/>
<stop offset="0.562308" stop-color="#F7FAFF"/>
<stop offset="1" stop-color="#D9E4F6"/>
</linearGradient>
</defs>
</svg>
