<svg width="163" height="118" viewBox="0 0 163 118" fill="none" xmlns="http://www.w3.org/2000/svg">
<path fill-rule="evenodd" clip-rule="evenodd" d="M32.3281 68.1577L44.9558 74.3886L64.5517 70.8725L32.3281 68.1577Z" fill="#FFD97A"/>
<path fill-rule="evenodd" clip-rule="evenodd" d="M53.8563 103.389L45.017 74.4042L64.6129 70.8881L53.8563 103.389Z" fill="#F2AD00"/>
<path fill-rule="evenodd" clip-rule="evenodd" d="M53.8701 103.364L45.0308 74.3791L4.81206 114.374L53.8701 103.364Z" fill="#EF9A00"/>
<path fill-rule="evenodd" clip-rule="evenodd" d="M32.4038 68.155L45.0315 74.3858L4.81281 114.38L32.4038 68.155Z" fill="#FFB632"/>
<path fill-rule="evenodd" clip-rule="evenodd" d="M100.377 58.2616L126.118 62.5608L158.187 4.69611L156.795 2.08111L95.312 53.6142L100.377 58.2616Z" fill="#1765DE"/>
<path fill-rule="evenodd" clip-rule="evenodd" d="M100.452 58.2607L126.194 62.5599L101.751 81.1084L64.0484 73.3179L100.452 58.2607Z" fill="#1353B7"/>
<path fill-rule="evenodd" clip-rule="evenodd" d="M63.0638 68.6082L87.0349 61.6012C84.3658 70.6409 82.8496 80.1342 79.8812 88.3717L76.7093 97.4992C67.127 104.581 57.8299 110.92 49.0146 116.017C53.0405 100.021 57.4091 84.126 63.0638 68.6082Z" fill="#3179E9"/>
<path fill-rule="evenodd" clip-rule="evenodd" d="M63.0638 68.6082L87.0349 61.6012C84.3658 70.6409 81.6784 79.636 78.7099 87.8736L76.7093 97.4992C67.127 104.581 57.8299 110.92 49.0146 116.017C53.0405 100.021 57.4091 84.126 63.0638 68.6082Z" fill="#4888EC"/>
<path fill-rule="evenodd" clip-rule="evenodd" d="M63.8234 49.673L40.3052 47.6768L15.9639 66.5125L61.0299 70.9928L63.8234 49.673Z" fill="#689DEF"/>
<path fill-rule="evenodd" clip-rule="evenodd" d="M61.8134 71.8649L95.8521 61.2881L123.052 43.1911L156.913 4.5379L156.823 2.07998L60.0816 70.0185L61.8134 71.8649Z" fill="#2471E8"/>
<path fill-rule="evenodd" clip-rule="evenodd" d="M61.8134 71.8649L94.054 58.7453L121.947 41.6602L156.913 4.5379L156.823 2.07998L60.0816 70.0185L61.8134 71.8649Z" fill="#4183EB"/>
<path fill-rule="evenodd" clip-rule="evenodd" d="M93.7717 10.2964L86.0169 51.8234L156.853 2.07718L155.225 0.909006L93.7717 10.2964Z" fill="#4E8CEC"/>
<path fill-rule="evenodd" clip-rule="evenodd" d="M93.7406 10.2913L85.9858 51.8184L60.0812 70.0107L67.5995 28.9312L93.7406 10.2913Z" fill="#4888EC"/>
<path fill-rule="evenodd" clip-rule="evenodd" d="M57.6981 64.706L86.0046 51.8342L75.3319 63.7118L45.9861 81.0842C39.8191 83.0481 33.6166 84.0474 27.3673 83.782C27.9252 78.524 39.5671 72.8569 57.6981 64.706Z" fill="#79A8F1"/>
<path fill-rule="evenodd" clip-rule="evenodd" d="M86.0046 51.8342L75.3319 63.7118L45.9861 81.0842C39.8191 83.0481 33.6166 84.0474 27.3673 83.782L86.0046 51.8342Z" fill="#5D96EE"/>
</svg>
