<svg width="147" height="136" viewBox="0 0 147 136" fill="none" xmlns="http://www.w3.org/2000/svg">
<path fill-rule="evenodd" clip-rule="evenodd" d="M145.198 98.3395C145.679 78.9174 147.082 68.7013 145.198 57.0741C144.279 51.425 142.245 49.3305 139.987 45.9507L135.248 54.6935L145.198 98.3395Z" fill="#1149A2"/>
<path fill-rule="evenodd" clip-rule="evenodd" d="M139.567 51.1279C141.171 53.4148 142.851 56.0967 143.508 57.7921C145.297 69.6246 144.744 80.5216 144.141 91.3982L134.246 53.567C137.481 53.7259 140.154 55.079 142.445 57.2491C141.128 55.4075 140.057 52.9698 139.567 51.1279Z" fill="#155AC6"/>
<path fill-rule="evenodd" clip-rule="evenodd" d="M142.243 68.1108C132.762 65.2855 114.746 60.007 108.708 58.9752C96.318 56.8576 91.6455 46.1605 80.5488 43.6418C102.154 40.8254 119.053 53.421 137.233 59.648C139.861 61.656 142.321 63.9333 142.243 68.1108Z" fill="#1F4785"/>
<path fill-rule="evenodd" clip-rule="evenodd" d="M142.179 66.5568C132.698 63.7316 114.786 58.0712 108.748 57.0394C96.3575 54.9218 90.2129 45.7421 79.1191 43.2234C100.725 40.4071 119.092 51.4852 137.273 57.7122C139.912 60.1908 142.239 62.8162 142.179 66.5568Z" fill="#25549F"/>
<path fill-rule="evenodd" clip-rule="evenodd" d="M142.081 65.165C132.6 62.3401 114.688 56.65 108.65 55.6182C96.2597 53.5006 89.6455 45.653 78.5488 43.1345C100.157 40.3182 117.05 49.9397 135.23 56.167C138.137 58.4299 141.191 60.5181 142.081 65.165Z" fill="#2A60B4"/>
<path fill-rule="evenodd" clip-rule="evenodd" d="M141.654 63.6032L107.952 53.7648L107.396 47.3789L134.533 54.3136C138.195 56.488 140.499 59.6336 141.654 63.6032Z" fill="#3672D0"/>
<path fill-rule="evenodd" clip-rule="evenodd" d="M118.829 55.088L105.655 53.4497L102.541 48.3428L130.481 50.8502L130.222 53.8136L118.829 55.088Z" fill="#4F86DD"/>
<path fill-rule="evenodd" clip-rule="evenodd" d="M111.252 17.1347L120.539 27.7033L119.332 15.8139C116.239 13.5231 113.502 13.6719 111.252 17.1347Z" fill="#1457C1"/>
<path fill-rule="evenodd" clip-rule="evenodd" d="M137.035 50.8559C137.758 49.1591 137.528 47.3429 136.664 45.4479C131.331 38.3114 121.989 31.6533 119.01 14.3248C114.421 10.6734 110.475 6.74591 107.271 2.49951C104.961 3.1253 102.921 3.95612 101.4 5.17712C103.673 9.06823 106.957 13.0611 111.209 17.1509C113.073 16.6163 114.672 17.1708 116.084 18.5043C119.005 21.2621 119.932 27.6497 123.095 34.035C126.019 41.7088 131.135 46.7543 137.035 50.8559Z" fill="#1660D3"/>
<path fill-rule="evenodd" clip-rule="evenodd" d="M138.176 49.7134C138.899 48.0165 138.668 46.2003 137.804 44.3054C132.472 37.1688 123.13 30.5107 120.151 13.1822C115.562 9.53078 111.615 5.60333 108.412 1.35693C106.102 1.98272 104.062 2.81354 102.541 4.03454C104.814 7.92565 108.098 11.9186 112.35 16.0084C114.214 15.4737 115.813 16.0283 117.224 17.3617C120.145 20.1195 121.073 26.5071 124.236 32.8924C127.16 40.5662 132.276 45.6117 138.176 49.7134Z" fill="#2470E8"/>
<path fill-rule="evenodd" clip-rule="evenodd" d="M139.178 48.3564C139.901 46.6596 139.67 44.8434 138.806 42.9484C133.474 35.8119 124.132 29.1538 121.153 11.8253C116.564 8.17385 112.617 4.2464 109.414 0C107.104 0.625785 105.064 1.45661 103.543 2.67761C105.816 6.56872 109.1 10.5616 113.352 14.6514C115.216 14.1168 116.815 14.6713 118.226 16.0048C121.147 18.7626 122.075 25.1502 125.238 31.5355C128.162 39.2093 133.278 44.2548 139.178 48.3564Z" fill="#397EEA"/>
<path fill-rule="evenodd" clip-rule="evenodd" d="M136.343 49.7283L125.284 37.7447C120.05 35.8639 106.251 33.8495 98.5737 34.2619C94.6126 34.475 92.2303 36.5715 90.0496 36.8732C84.4379 37.6486 78.7311 35.9319 73.0705 33.1689C73.0244 34.2579 73.1828 35.2776 73.6956 36.1802C72.9293 37.8303 71.9758 39.3876 70.8379 40.8517C75.6545 43.503 83.1848 43.1956 87.4684 45.0216C97.7556 49.4076 124.264 56.9995 136.343 49.7283Z" fill="#3179E9"/>
<path fill-rule="evenodd" clip-rule="evenodd" d="M70.8379 40.8504C74.4907 41.537 77.8524 40.4735 81.0702 38.5601C77.8352 39.6723 74.508 40.6058 70.8379 40.8504Z" fill="#1660D3"/>
<path fill-rule="evenodd" clip-rule="evenodd" d="M73.5854 36.1378C73.0957 35.2456 72.9401 34.2409 72.9862 33.1689C78.6469 35.9319 84.3536 37.6486 89.9653 36.8732C92.1461 36.5715 94.5284 34.475 98.4894 34.2619C99.0541 34.2316 99.6533 34.2143 100.278 34.2094C98.9879 41.1011 91.0139 42.5101 73.6113 36.1802L73.5854 36.1378Z" fill="#4B8AEC"/>
<path fill-rule="evenodd" clip-rule="evenodd" d="M125.25 37.7257V31.5264C129.179 37.236 133.636 42.8704 139.19 48.3473L136.309 49.7093L125.25 37.7257Z" fill="#1867E3"/>
<path fill-rule="evenodd" clip-rule="evenodd" d="M6.71289 73.6255C9.41503 74.7266 10.2274 77.1539 9.4726 80.6793C8.80139 83.8025 7.72981 87.8447 8.09278 90.755C8.39526 93.1855 10.7229 93.6596 11.3941 95.0446C13.7102 99.8231 18.6824 106.407 24.7406 108.373C31.156 110.453 37.8105 113.514 45.4819 106.225C51.2665 108.186 57.4774 109.11 63.9764 110.866C71.0429 112.773 78.4492 115.497 86.0256 117.257C90.9718 126.29 97.7531 132.148 106.053 134.697C111.633 136.41 118.218 134.97 123.593 128.463C127.488 129.909 133.284 124.775 138.478 119.91C142.298 116.335 146.372 113.241 146.184 111.303L146.075 109.648L32.2104 82.445L11.0743 68.9082L6.71289 73.6255Z" fill="#1868E5"/>
<path fill-rule="evenodd" clip-rule="evenodd" d="M6.71289 72.5542C9.41503 73.6553 11.057 76.2573 10.3023 79.7828C9.63108 82.9059 8.55655 86.9484 8.9224 89.8585C9.22488 92.2889 10.7229 92.5883 11.3941 93.9734C13.7102 98.7518 18.6824 105.336 24.7406 107.301C31.156 109.382 37.8105 112.443 45.4819 105.154C51.2665 107.115 57.4774 108.039 63.9764 109.794C71.0429 111.702 78.4492 114.426 86.0256 116.186C90.9718 125.218 97.7531 131.076 106.053 133.625C111.633 135.339 118.218 133.898 123.593 127.391C127.488 128.838 133.284 123.704 138.478 118.839C142.298 115.263 146.372 112.17 146.184 110.231L146.075 108.576L32.2104 81.3738L11.0743 67.8369L6.71289 72.5542Z" fill="#216EE8"/>
<path fill-rule="evenodd" clip-rule="evenodd" d="M6.71289 71.4834C9.41503 72.5845 12.0019 75.5603 11.2443 79.0857C10.576 82.2089 9.50144 86.2514 9.86441 89.1614C10.1698 91.5919 10.7229 91.5175 11.3941 92.9026C13.7102 97.681 18.6824 104.265 24.7406 106.231C31.156 108.311 37.8105 111.372 45.4819 104.083C51.2665 106.044 57.4774 106.968 63.9764 108.724C71.0429 110.631 78.4492 113.355 86.0256 115.115C90.9718 124.148 97.7531 130.006 106.053 132.555C111.633 134.268 117.965 132.471 123.337 125.964C127.235 127.411 133.284 122.633 138.478 117.768C142.298 114.193 146.372 111.099 146.184 109.161L146.075 107.506L32.2104 80.303L11.0743 66.7661L6.71289 71.4834Z" fill="#2E77E9"/>
<path fill-rule="evenodd" clip-rule="evenodd" d="M11.4258 74.0137L13.834 74.6628L23.4587 83.3177L20.1429 94.369C17.3544 94.8511 14.6494 93.5312 12.0163 90.5849L11.4258 74.0137Z" fill="#2153A0"/>
<path fill-rule="evenodd" clip-rule="evenodd" d="M23.707 94.377C26.2997 102.245 32.8534 105.754 44.2266 103.953L86.7782 115.195C103.075 131.444 114.937 131.88 120.97 124.227C119.558 115.287 114.724 107.846 110.302 100.224L31.7472 79.8691L23.707 94.377Z" fill="#10469A"/>
<path fill-rule="evenodd" clip-rule="evenodd" d="M17.2027 92.7713L23.9206 94.3629C28.7487 99.3173 36.2704 102.216 45.1027 104.111C58.5184 106.947 72.2336 110.62 86.0871 114.665C89.6333 115.803 92.2922 116.479 104.847 122.306C110.115 121.592 113.633 129.281 121.062 124.213C116.254 132.599 111.273 134.133 105.342 132.796C98.8661 131.337 92.0905 125.06 86.2311 116.266C72.4784 112.119 58.7344 107.952 44.538 104.92C39.3498 108.534 33.8217 110.626 25.7902 107.391C19.2278 104.747 14.9009 100.804 14.8692 94.3629C13.8811 92.6635 11.856 91.8903 11.7408 90.265L11.1387 74.6567L11.5737 74.7966L12.2679 90.2324C12.942 91.6091 15.9294 93.3971 17.2027 92.7713Z" fill="#0E3B82"/>
<path fill-rule="evenodd" clip-rule="evenodd" d="M17.1367 92.7944L23.7336 94.386C26.8967 91.3191 29.1033 87.2941 30.5696 82.5295L25.5629 81.6543C20.9998 84.9542 18.0989 88.6458 17.1367 92.7944Z" fill="#124EAC"/>
<path fill-rule="evenodd" clip-rule="evenodd" d="M87.5449 111.023C98.2354 95.6008 109.781 104.724 121.546 120.277C122.056 120.949 122.085 121.94 123.073 122.329L133.245 103.395C127.812 81.5549 107.405 82.7428 101.159 93.1642L87.5449 111.023Z" fill="#4183EB"/>
<path fill-rule="evenodd" clip-rule="evenodd" d="M46.0466 65.8735C52.1019 70.5767 56.1033 76.6483 59.154 83.3571C65.1892 85.7475 71.5125 85.7201 77.9826 87.1537C85.5561 88.832 93.239 92.9792 101.086 93.1335L87.4718 110.992C72.3882 108.453 58.1141 105.104 45.0327 100.559C41.6996 87.2012 26.9819 76.2428 15.5684 90.1606L23.8476 79.8473C29.6552 73.124 36.9809 68.3294 46.0466 65.8735Z" fill="#165FD1"/>
<path fill-rule="evenodd" clip-rule="evenodd" d="M59.3914 83.4238C65.3834 85.7583 71.6577 85.7421 78.0789 87.1647C85.6524 88.8431 93.3353 92.9903 101.182 93.1445L87.568 111.003C72.4844 108.464 58.2104 105.115 45.1289 100.57L59.2503 83.3682L59.3914 83.4238Z" fill="#1F6DE7"/>
<path fill-rule="evenodd" clip-rule="evenodd" d="M13.4258 75.3293L13.7801 89.4804L22.7652 78.3957L21.6561 72.3359L13.4258 75.3293Z" fill="#124EAC"/>
<path fill-rule="evenodd" clip-rule="evenodd" d="M15.6281 90.1784L13.8535 89.49L22.8386 78.4053L24.6304 79.0458L15.6281 90.1784Z" fill="#1455BC"/>
<path fill-rule="evenodd" clip-rule="evenodd" d="M28.947 78.782L29.4108 74.4476L32.4183 76.5946C31.9919 72.4647 31.0528 68.6155 28.0827 65.8735C27.0543 70.374 27.6679 74.6282 28.947 78.782Z" fill="#1660D3"/>
<path fill-rule="evenodd" clip-rule="evenodd" d="M8.99609 49.5665C17.3099 52.4405 27.1823 52.3145 36.7406 55.3823L43.4642 70.2162C43.735 69.4543 44.1614 69.112 44.4293 68.392C45.5614 65.3262 46.61 62.541 48.0705 61.3918C48.9722 60.6942 49.3439 59.5061 48.9982 58.4189C47.7681 54.5465 45.4865 47.41 45.4865 47.41C36.7377 45.1575 27.6317 44.8573 20.0265 42.7723C18.9174 42.4505 17.7247 42.6832 16.8202 43.3975C14.2073 45.451 8.99609 49.5665 8.99609 49.5665Z" fill="#2C75E9"/>
<path fill-rule="evenodd" clip-rule="evenodd" d="M11.1387 47.9071C19.4525 50.7811 29.0137 50.493 38.5691 53.5608L44.6878 68.889C45.0278 68.4397 45.5896 67.698 45.8171 67.0783C46.981 63.9012 47.8855 61.1622 49.297 60.0441C50.1958 59.3459 50.5617 58.1619 50.2161 57.0787C48.986 53.2029 46.7101 46.0828 46.7101 46.0828C37.9699 43.8326 28.8726 43.5306 21.2703 41.4511C20.1526 41.1261 18.9455 41.3683 18.038 42.1003C15.8372 43.8677 11.9309 47.0206 11.9309 47.0206L11.1387 47.9071Z" fill="#508DED"/>
<path fill-rule="evenodd" clip-rule="evenodd" d="M11.5684 46.8888C19.8822 49.7628 29.7545 49.6367 39.3129 52.7045L46.0365 67.5385C47.3127 63.9453 48.9086 61.9938 50.7321 61.2316C52.0256 60.6854 52.691 59.2418 52.2618 57.9032C50.7782 53.2398 48.0588 44.7323 48.0588 44.7323C39.3099 42.4797 30.2039 42.1795 22.5988 40.0946C21.4897 39.7727 20.297 40.0054 19.3924 40.7198C16.7796 42.7733 11.5684 46.8888 11.5684 46.8888Z" fill="#659BEF"/>
<path fill-rule="evenodd" clip-rule="evenodd" d="M28.08 65.8954L32.4156 76.6165C35.0716 75.146 38.615 72.7856 42.4579 71.6935C42.8612 71.59 43.2039 71.3261 43.4056 70.9636C43.6072 70.6009 43.6505 70.1712 43.5295 69.7746C41.1414 62.0478 38.9808 56.4656 37.3704 54.3925C31.7069 52.9462 25.2915 52.9566 20.3798 51.8642C16.1854 50.931 12.8322 49.4142 9.51651 48.8071L0.427734 57.1312L28.08 65.8954Z" fill="#4183EB"/>
<path fill-rule="evenodd" clip-rule="evenodd" d="M28.1092 65.8901C28.1092 65.8901 28.7459 75.3876 28.9994 79.1547C29.0195 79.4875 28.8726 79.8091 28.6076 80.0092C28.3397 80.2096 27.9882 80.2615 27.6771 80.1471C19.9625 77.3325 12.4409 74.7272 6.17523 73.497C3.49901 72.9851 1.45076 70.8177 1.09355 68.1173C0.482829 63.5964 -0.629129 59.273 0.456913 57.126L28.1092 65.8901Z" fill="#2471E8"/>
<path fill-rule="evenodd" clip-rule="evenodd" d="M126.125 125.88L144.017 110.307L141.24 67.79L125.676 63.4458L126.125 125.88Z" fill="#347AEA"/>
<path fill-rule="evenodd" clip-rule="evenodd" d="M127.243 125.89L145.135 110.316L142.252 68.0934L125.676 63.1958L127.243 125.89Z" fill="#4385EB"/>
<path fill-rule="evenodd" clip-rule="evenodd" d="M128.396 127.078L146.288 111.505L143.352 68.3921L126.391 63.4458L128.396 127.078Z" fill="#538FED"/>
<path fill-rule="evenodd" clip-rule="evenodd" d="M118.822 55.1049C124.99 53.573 134.067 50.4787 138.861 48.0998C139.834 47.6168 139.241 45.0467 138.861 42.9517C141.059 46.593 140.578 53.6627 138.599 54.2164C137.406 54.5506 124.872 56.2988 118.822 55.1049Z" fill="#5A8FE3"/>
</svg>
