<svg width="23" height="23" viewBox="0 0 23 23" fill="none" xmlns="http://www.w3.org/2000/svg">
<g clip-path="url(#clip0)">
<path d="M18.0669 10.1385C14.4437 7.98678 8.46731 7.78894 5.00853 8.83869C4.45299 9.00727 3.86563 8.69373 3.69745 8.13832C3.52913 7.5825 3.84228 6.99555 4.39809 6.8267C8.36866 5.62151 14.9689 5.85426 19.14 8.33026C19.6397 8.62689 19.8035 9.2721 19.5074 9.77087C19.211 10.2704 18.5653 10.4351 18.0669 10.1385ZM17.9482 13.3255C17.694 13.7379 17.1547 13.8673 16.7428 13.6141C13.7223 11.7574 9.11601 11.2194 5.54234 12.3042C5.079 12.4442 4.58949 12.183 4.44869 11.7203C4.3091 11.257 4.57043 10.7684 5.0331 10.6275C9.11547 9.3886 14.1906 9.98858 17.6599 12.1207C18.0719 12.3744 18.2015 12.914 17.9482 13.3255ZM16.5729 16.3862C16.3709 16.7174 15.9396 16.8212 15.6096 16.6193C12.9701 15.0061 9.6478 14.6418 5.73521 15.5355C5.35818 15.6219 4.98236 15.3857 4.89646 15.0088C4.81002 14.6317 5.04545 14.2559 5.42328 14.1699C9.70498 13.1911 13.3777 13.6123 16.3404 15.4227C16.6707 15.6244 16.7747 16.056 16.5729 16.3862ZM11.4179 0.173828C5.21027 0.173828 0.177734 5.20623 0.177734 11.4139C0.177734 17.6222 5.21027 22.6543 11.4179 22.6543C17.6258 22.6543 22.6582 17.6222 22.6582 11.4139C22.6582 5.20623 17.6258 0.173828 11.4179 0.173828Z" fill="white"/>
</g>
<defs>
<clipPath id="clip0">
<rect width="22.952" height="22.952" fill="white"/>
</clipPath>
</defs>
</svg>
