<svg width="220" height="70" viewBox="0 0 220 70" fill="none" xmlns="http://www.w3.org/2000/svg">
<path d="M79.8467 21.9417C79.1698 21.6675 78.5869 21.1942 78.1714 20.5813C77.7754 19.9768 77.5712 19.2615 77.5868 18.5334V18.1238C77.5858 18.0938 77.591 18.064 77.602 18.0363C77.6131 18.0085 77.6298 17.9835 77.6509 17.9629C77.6706 17.9431 77.694 17.9276 77.7198 17.9175C77.7456 17.9075 77.7731 17.903 77.8006 17.9044H79.8467C79.8742 17.903 79.9018 17.9075 79.9275 17.9175C79.9533 17.9276 79.9767 17.9431 79.9964 17.9629C80.0176 17.9835 80.0342 18.0085 80.0453 18.0363C80.0563 18.064 80.0616 18.0938 80.0606 18.1238V18.4017C80.0589 18.6515 80.1196 18.8977 80.2369 19.1166C80.3542 19.3355 80.5242 19.52 80.7307 19.6524C81.2638 20.0208 81.8997 20.2006 82.5415 20.1644C83.05 20.2043 83.5557 20.0564 83.9673 19.7475C84.1164 19.623 84.2361 19.4656 84.3176 19.2871C84.3991 19.1085 84.4402 18.9134 84.4378 18.7162C84.4393 18.4436 84.337 18.1812 84.1527 17.9848C83.9244 17.7568 83.6558 17.5756 83.3613 17.4509C83.0334 17.2973 82.5058 17.0779 81.7787 16.8073C81.076 16.5648 80.3901 16.274 79.7255 15.9369C79.1667 15.6483 78.6791 15.2331 78.2997 14.7228C77.9087 14.1689 77.7081 13.4974 77.7293 12.8139C77.7146 12.121 77.9115 11.4407 78.2925 10.8684C78.6794 10.2934 79.2187 9.84417 79.8467 9.57382C80.5759 9.26318 81.36 9.11126 82.1494 9.12767C82.9919 9.11416 83.8277 9.28366 84.6018 9.62501C85.2763 9.92807 85.8578 10.4135 86.2843 11.0293C86.6891 11.647 86.9005 12.3768 86.8902 13.1211V13.399C86.8902 13.4277 86.8846 13.4561 86.8735 13.4825C86.8625 13.509 86.8464 13.5328 86.8261 13.5526C86.806 13.5743 86.7816 13.5914 86.7545 13.6027C86.7275 13.6141 86.6984 13.6194 86.6692 13.6184H84.5875C84.5314 13.6166 84.478 13.5929 84.4383 13.5521C84.3986 13.5114 84.3755 13.4566 84.3737 13.399V13.2454C84.3748 12.9902 84.3188 12.7381 84.2101 12.5086C84.1013 12.2791 83.9426 12.0783 83.7463 11.9216C83.26 11.5313 82.6517 11.3363 82.0353 11.373C81.5654 11.3443 81.0992 11.4754 80.7093 11.7461C80.5532 11.8615 80.4273 12.0147 80.3427 12.192C80.2581 12.3694 80.2175 12.5654 80.2245 12.7627C80.2183 13.0514 80.3204 13.3316 80.5097 13.5453C80.7465 13.7905 81.0306 13.9823 81.3438 14.1084C81.7098 14.2742 82.2801 14.501 83.0548 14.7886C83.741 15.0385 84.4144 15.3241 85.0723 15.6444C85.5833 15.9125 86.0328 16.2889 86.3912 16.7488C86.7971 17.2929 87.004 17.9658 86.9758 18.6504C86.9969 19.1787 86.8946 19.7045 86.6776 20.1841C86.4606 20.6637 86.1351 21.0832 85.7282 21.4077C84.7437 22.1284 83.5496 22.4843 82.3419 22.4171C81.4877 22.4292 80.6396 22.2677 79.8467 21.9417Z" fill="#1C307A"/>
<path d="M97.8692 11.4536C97.8491 11.4753 97.8247 11.4924 97.7976 11.5038C97.7706 11.5151 97.7415 11.5205 97.7124 11.5194H91.7952C91.7827 11.5183 91.7702 11.52 91.7585 11.5244C91.7467 11.5288 91.7361 11.5358 91.7272 11.5448C91.7184 11.5539 91.7116 11.5648 91.7073 11.5769C91.7031 11.5889 91.7014 11.6018 91.7025 11.6145V14.4889C91.7014 14.5017 91.7031 14.5145 91.7073 14.5266C91.7116 14.5386 91.7184 14.5495 91.7272 14.5586C91.7361 14.5677 91.7467 14.5746 91.7585 14.579C91.7702 14.5834 91.7827 14.5851 91.7952 14.584H95.6877C95.7168 14.5838 95.7456 14.5896 95.7725 14.6009C95.7994 14.6121 95.8239 14.6288 95.8445 14.6498C95.8644 14.6711 95.8798 14.6964 95.8896 14.7241C95.8994 14.7518 95.9035 14.7813 95.9016 14.8107V16.6099C95.9029 16.6382 95.8985 16.6664 95.8887 16.6929C95.8789 16.7193 95.8639 16.7434 95.8445 16.7635C95.8239 16.7845 95.7994 16.8012 95.7725 16.8125C95.7456 16.8238 95.7168 16.8295 95.6877 16.8294H91.7952C91.7827 16.8282 91.7702 16.8299 91.7585 16.8343C91.7467 16.8387 91.7361 16.8457 91.7272 16.8547C91.7184 16.8638 91.7116 16.8747 91.7073 16.8868C91.7031 16.8988 91.7014 16.9117 91.7025 16.9244V22.0442C91.7022 22.1008 91.682 22.1553 91.6455 22.1978C91.6248 22.2188 91.6004 22.2354 91.5735 22.2467C91.5465 22.258 91.5177 22.2637 91.4886 22.2636H89.3499C89.3207 22.2646 89.2917 22.2593 89.2646 22.2479C89.2376 22.2366 89.2132 22.2195 89.1931 22.1978C89.1728 22.178 89.1567 22.1541 89.1456 22.1277C89.1346 22.1013 89.1289 22.0729 89.1289 22.0442V9.50811C89.1289 9.47939 89.1346 9.45096 89.1456 9.42456C89.1567 9.39816 89.1728 9.37433 89.1931 9.35452C89.2132 9.33281 89.2376 9.31571 89.2646 9.30437C89.2917 9.29302 89.3207 9.28768 89.3499 9.2887H97.691C97.7202 9.28768 97.7492 9.29302 97.7763 9.30437C97.8033 9.31571 97.8277 9.33281 97.8478 9.35452C97.8681 9.37433 97.8842 9.39816 97.8953 9.42456C97.9063 9.45096 97.912 9.47939 97.912 9.50811V11.3147C97.9142 11.3647 97.899 11.4139 97.8692 11.4536Z" fill="#1C307A"/>
<path d="M101.798 21.8613C101.113 21.5133 100.541 20.9698 100.151 20.2961C99.7495 19.5886 99.5449 18.7816 99.5593 17.963V9.50811C99.5593 9.47939 99.565 9.45096 99.576 9.42456C99.5871 9.39816 99.6032 9.37433 99.6235 9.35452C99.6436 9.33281 99.668 9.31571 99.695 9.30437C99.7221 9.29302 99.7511 9.28768 99.7803 9.2887H101.919C101.975 9.29053 102.029 9.31423 102.068 9.35499C102.108 9.39575 102.131 9.4505 102.133 9.50811V17.985C102.133 18.5669 102.358 19.125 102.759 19.5365C103.16 19.948 103.704 20.1791 104.272 20.1791C104.839 20.1791 105.383 19.948 105.784 19.5365C106.185 19.125 106.41 18.5669 106.41 17.985V9.50811C106.41 9.47939 106.416 9.45096 106.427 9.42456C106.438 9.39816 106.454 9.37433 106.475 9.35452C106.495 9.33281 106.519 9.31571 106.546 9.30437C106.573 9.29302 106.602 9.28768 106.631 9.2887H108.77C108.798 9.28777 108.826 9.29319 108.852 9.30456C108.878 9.31594 108.901 9.33299 108.92 9.35452C108.94 9.37433 108.956 9.39816 108.967 9.42456C108.978 9.45096 108.984 9.47939 108.984 9.50811V17.963C109.001 18.781 108.799 19.588 108.399 20.2961C108.009 20.9698 107.437 21.5133 106.753 21.8613C105.984 22.2273 105.147 22.4168 104.3 22.4168C103.453 22.4168 102.616 22.2273 101.848 21.8613H101.798Z" fill="#1C307A"/>
<path d="M82.7845 60.896C80.9843 60.1622 79.4312 58.9068 78.3146 57.2829C77.2542 55.6689 76.7064 53.758 76.7462 51.8121V50.7223C76.7445 50.6433 76.7588 50.5648 76.7883 50.4918C76.8177 50.4188 76.8617 50.3528 76.9173 50.2981C76.9692 50.2413 77.0322 50.1963 77.1022 50.166C77.1723 50.1358 77.2477 50.121 77.3236 50.1226H82.8273C82.9823 50.1226 83.131 50.1858 83.2407 50.2982C83.3503 50.4107 83.4119 50.5633 83.4119 50.7223V51.4537C83.4178 52.1183 83.5836 52.7711 83.8945 53.3542C84.2054 53.9373 84.6519 54.4326 85.1942 54.7962C86.6152 55.7784 88.3096 56.2586 90.0206 56.1639C91.7315 56.1639 93.0029 55.7909 93.8346 55.0448C94.233 54.7138 94.553 54.2943 94.7703 53.8179C94.9877 53.3415 95.0968 52.8207 95.0894 52.2948C95.0975 51.925 95.0335 51.5573 94.9013 51.2132C94.7691 50.8691 94.5713 50.5555 94.3194 50.2908C93.7164 49.6726 93.0054 49.1764 92.2235 48.828C91.3323 48.4111 89.9279 47.8406 87.9959 47.1166C86.117 46.4756 84.285 45.6984 82.5136 44.7907C81.0359 44.0138 79.749 42.9036 78.7494 41.5433C77.706 40.0723 77.1716 38.2858 77.2309 36.4675C77.1926 34.6168 77.7157 32.7996 78.7281 31.2673C79.7668 29.7476 81.206 28.5628 82.8772 27.8517C84.8178 27.0213 86.906 26.6152 89.0082 26.6595C91.2535 26.6335 93.478 27.1024 95.5314 28.0345C97.3346 28.8335 98.8886 30.1266 100.023 31.7719C101.11 33.4135 101.673 35.361 101.634 37.3452V38.0765C101.637 38.154 101.624 38.2312 101.595 38.303C101.567 38.3749 101.524 38.4398 101.47 38.4934C101.417 38.5505 101.352 38.5955 101.281 38.6258C101.21 38.656 101.133 38.6707 101.056 38.669H95.5314C95.4555 38.6697 95.3804 38.6545 95.3105 38.6243C95.2406 38.5941 95.1775 38.5496 95.125 38.4934C95.0696 38.4401 95.0257 38.3755 94.9962 38.3037C94.9668 38.2318 94.9523 38.1545 94.9539 38.0765V37.6816C94.9551 37.0002 94.8063 36.3273 94.5187 35.7131C94.2311 35.0989 93.812 34.5593 93.2928 34.1343C91.994 33.0976 90.3733 32.578 88.7302 32.6716C87.4687 32.5916 86.2165 32.9385 85.1656 33.6589C84.7505 33.9695 84.4162 34.3802 84.1924 34.8547C83.9686 35.3292 83.8622 35.853 83.8824 36.3797C83.8514 37.1425 84.1065 37.8885 84.5953 38.4642C85.2281 39.1176 85.9853 39.6305 86.8196 39.9709C87.7963 40.417 89.3219 41.0241 91.3822 41.7847C93.2128 42.4489 95.0092 43.2081 96.7647 44.0593C98.1267 44.7686 99.3269 45.7657 100.286 46.9849C101.379 48.4329 101.934 50.2317 101.855 52.0608C101.911 53.4706 101.639 54.8738 101.06 56.1537C100.48 57.4335 99.6117 58.5529 98.5256 59.4186C96.3512 61.2617 93.3356 62.1686 89.5429 62.1686C87.2294 62.2176 84.9303 61.7847 82.7845 60.896Z" fill="#1C307A"/>
<path d="M112.398 60.7053C110.575 59.7687 109.052 58.3172 108.006 56.5217C106.938 54.6362 106.395 52.4855 106.438 50.3049V27.6903C106.436 27.6113 106.451 27.5327 106.48 27.4597C106.509 27.3867 106.553 27.3208 106.609 27.2661C106.661 27.2088 106.724 27.1636 106.794 27.1333C106.864 27.103 106.939 27.0885 107.015 27.0905H112.64C112.795 27.0905 112.944 27.1537 113.054 27.2662C113.163 27.3787 113.225 27.5312 113.225 27.6903V50.3195C113.225 51.8714 113.826 53.3596 114.895 54.4569C115.965 55.5542 117.415 56.1707 118.928 56.1707C120.441 56.1707 121.891 55.5542 122.961 54.4569C124.03 53.3596 124.631 51.8714 124.631 50.3195V27.6903C124.631 27.5325 124.692 27.381 124.8 27.2687C124.908 27.1565 125.055 27.0924 125.209 27.0905H130.862C131.016 27.0924 131.163 27.1565 131.271 27.2687C131.379 27.381 131.44 27.5325 131.44 27.6903V50.2757C131.479 52.4558 130.936 54.6055 129.871 56.4925C128.828 58.2998 127.302 59.7619 125.473 60.7053C123.423 61.6834 121.189 62.1902 118.928 62.1902C116.667 62.1902 114.434 61.6834 112.384 60.7053H112.398Z" fill="#1C307A"/>
<path d="M154.909 61.3203L148.877 47.5994C148.853 47.5404 148.813 47.4901 148.76 47.4549C148.708 47.4198 148.647 47.4013 148.585 47.4019H144.094C144.061 47.397 144.027 47.4 143.996 47.4108C143.964 47.4216 143.935 47.4397 143.912 47.4639C143.888 47.488 143.87 47.5175 143.86 47.5499C143.849 47.5823 143.846 47.6168 143.851 47.6506V61.174C143.852 61.3297 143.793 61.4794 143.687 61.5909C143.634 61.648 143.57 61.693 143.499 61.7232C143.427 61.7535 143.351 61.7682 143.274 61.7664H137.628C137.474 61.7665 137.326 61.7043 137.217 61.5934C137.107 61.4825 137.045 61.3318 137.043 61.174V27.6909C137.043 27.5318 137.105 27.3793 137.214 27.2668C137.324 27.1543 137.473 27.0911 137.628 27.0911H151.437C153.314 27.0575 155.17 27.4996 156.841 28.3784C158.367 29.2093 159.624 30.4806 160.455 32.0354C161.335 33.7256 161.777 35.6196 161.738 37.5354C161.793 39.5875 161.219 41.6056 160.099 43.3061C158.977 44.9283 157.362 46.1222 155.507 46.6998C155.473 46.7085 155.441 46.7253 155.414 46.7488C155.388 46.7723 155.366 46.8019 155.353 46.8352C155.339 46.8685 155.333 46.9047 155.335 46.9408C155.337 46.977 155.347 47.0121 155.365 47.0435L161.931 61.0643C161.983 61.1563 162.017 61.2583 162.03 61.3642C162.03 61.6275 161.852 61.7591 161.496 61.7591H155.557C155.419 61.7582 155.285 61.7163 155.169 61.6384C155.054 61.5605 154.964 61.45 154.909 61.3203ZM143.851 33.3372V41.8068C143.848 41.84 143.852 41.8736 143.863 41.9051C143.874 41.9365 143.892 41.965 143.915 41.9883C143.938 42.0116 143.967 42.0291 143.998 42.0394C144.029 42.0498 144.061 42.0528 144.094 42.0481H150.424C151.643 42.1018 152.833 41.6572 153.732 40.8121C154.157 40.4002 154.491 39.9001 154.713 39.3452C154.934 38.7902 155.037 38.1931 155.015 37.5939C155.035 36.9906 154.931 36.3898 154.71 35.8303C154.489 35.2709 154.156 34.7654 153.732 34.3466C153.29 33.9221 152.769 33.5923 152.202 33.3763C151.634 33.1603 151.029 33.0625 150.424 33.0886H144.101C144.067 33.0824 144.033 33.0844 144 33.0946C143.968 33.1048 143.938 33.1228 143.914 33.1471C143.889 33.1714 143.871 33.2013 143.86 33.2344C143.849 33.2675 143.846 33.3027 143.851 33.3372Z" fill="#1C307A"/>
<path d="M172.005 60.6251C170.163 59.6593 168.629 58.1719 167.585 56.3391C166.511 54.4027 165.969 52.2036 166.017 49.976V38.8808C165.972 36.6444 166.514 34.4369 167.585 32.4884C168.621 30.651 170.157 29.164 172.005 28.2098C174.048 27.2224 176.277 26.7104 178.535 26.7104C180.793 26.7104 183.023 27.2224 185.066 28.2098C186.858 29.1232 188.376 30.5185 189.457 32.2471C190.503 33.9442 191.047 35.9152 191.026 37.9227V38.2664C191.027 38.3454 191.013 38.4239 190.983 38.497C190.954 38.57 190.91 38.6359 190.854 38.6906C190.746 38.7993 190.6 38.8597 190.448 38.8589H184.795C184.643 38.8597 184.497 38.7993 184.388 38.6906C184.333 38.6359 184.289 38.57 184.259 38.497C184.23 38.4239 184.216 38.3454 184.217 38.2664V38.1202C184.233 37.405 184.104 36.6944 183.837 36.0333C183.571 35.3723 183.174 34.7753 182.67 34.2803C181.516 33.2598 180.038 32.7064 178.514 32.7239C176.99 32.7414 175.525 33.3286 174.393 34.3754C173.864 34.9549 173.452 35.637 173.183 36.3818C172.913 37.1265 172.792 37.9189 172.825 38.7126V50.1735C172.794 50.9776 172.928 51.7795 173.219 52.5268C173.51 53.2741 173.952 53.9501 174.514 54.5107C175.086 55.062 175.758 55.4925 176.492 55.7773C177.226 56.0622 178.008 56.1959 178.792 56.1709C180.248 56.2481 181.678 55.7597 182.799 54.8032C183.305 54.3241 183.702 53.736 183.961 53.081C184.22 52.4259 184.334 51.7203 184.296 51.0146V48.8204C184.3 48.7866 184.297 48.7522 184.287 48.7197C184.276 48.6873 184.259 48.6579 184.235 48.6337C184.212 48.6096 184.183 48.5914 184.151 48.5807C184.12 48.5699 184.086 48.5668 184.053 48.5717H178.642C178.566 48.5733 178.491 48.5585 178.421 48.5283C178.351 48.4981 178.288 48.4531 178.236 48.3962C178.18 48.3415 178.136 48.2756 178.107 48.2025C178.077 48.1295 178.063 48.051 178.065 47.972V43.3862C178.064 43.3084 178.079 43.2313 178.108 43.1596C178.138 43.0879 178.181 43.0231 178.236 42.9693C178.288 42.9124 178.351 42.8674 178.421 42.8372C178.491 42.807 178.566 42.7921 178.642 42.7937H190.427C190.579 42.7956 190.725 42.8587 190.833 42.9694C190.941 43.0801 191.002 43.2296 191.004 43.3862V49.9248C191.06 52.2063 190.526 54.4623 189.457 56.4635C188.456 58.2934 186.94 59.7715 185.108 60.7055C183.072 61.7148 180.832 62.216 178.571 62.1683C176.292 62.2142 174.037 61.6842 172.005 60.6251Z" fill="#1C307A"/>
<path d="M203.287 33.0882H219.121C219.276 33.0882 219.424 33.0251 219.534 32.9126C219.644 32.8001 219.705 32.6476 219.705 32.4885V27.6906C219.705 27.5315 219.644 27.379 219.534 27.2665C219.424 27.154 219.276 27.0908 219.121 27.0908H196.821C196.666 27.0908 196.517 27.154 196.408 27.2665C196.298 27.379 196.236 27.5315 196.236 27.6906V61.1737C196.238 61.3315 196.301 61.4822 196.41 61.5931C196.519 61.704 196.667 61.7661 196.821 61.7661H219.121C219.275 61.7661 219.422 61.704 219.532 61.5931C219.641 61.4822 219.703 61.3315 219.705 61.1737V56.3685C219.705 56.2094 219.644 56.0569 219.534 55.9444C219.424 55.8319 219.276 55.7687 219.121 55.7687H203.287C203.123 55.7687 203.045 55.6883 203.045 55.5274V47.482C203.045 47.3211 203.123 47.2407 203.287 47.2407H216.012C216.177 47.2407 216.335 47.1736 216.451 47.0543C216.567 46.935 216.633 46.7731 216.633 46.6044V41.8942C216.633 41.7254 216.567 41.5636 216.451 41.4443C216.335 41.3249 216.177 41.2579 216.012 41.2579H203.287C203.254 41.2628 203.22 41.2597 203.189 41.249C203.157 41.2382 203.129 41.22 203.105 41.1959C203.081 41.1718 203.064 41.1423 203.053 41.1099C203.043 41.0775 203.04 41.043 203.045 41.0092V33.3369C203.04 33.3031 203.043 33.2686 203.053 33.2362C203.064 33.2038 203.081 33.1744 203.105 33.1502C203.129 33.1261 203.157 33.1079 203.189 33.0971C203.22 33.0864 203.254 33.0833 203.287 33.0882Z" fill="#1C307A"/>
<path d="M34.0933 69.9504C52.9215 69.9504 68.1847 54.2914 68.1847 34.9752C68.1847 15.6589 52.9215 0 34.0933 0C15.2652 0 0.00195312 15.6589 0.00195312 34.9752C0.00195312 54.2914 15.2652 69.9504 34.0933 69.9504Z" fill="#1C307A"/>
<path d="M26.9417 59.9742L38.2484 44.0371L30.9126 29.3435L45.4203 22.1978L36.3592 6.76539L67.2069 43.2838C68.8914 36.217 68.3861 28.7871 65.7612 22.0288C63.1363 15.2704 58.5225 9.52005 52.5622 5.57837C46.602 1.6367 39.592 -0.300077 32.5084 0.03774C25.4248 0.375557 18.6201 2.97115 13.042 7.46309C7.46389 11.955 3.38995 18.1197 1.38748 25.0987C-0.614986 32.0777 -0.446306 39.5237 1.87003 46.3997C4.18637 53.2758 8.53506 59.2396 14.3106 63.4608C20.0861 67.6821 27.0009 69.9505 34.0922 69.9504H34.6981L26.9417 59.9742Z" fill="#568CDB"/>
<path d="M45.4125 22.1975L36.1874 6.06299L24.2676 37.4251L45.4125 22.1975Z" fill="#FFCA61"/>
<path d="M33.7783 30.521L45.4273 45.4341L24.2324 37.4765L33.7783 30.521Z" fill="url(#paint0_linear)"/>
<path d="M45.4272 45.4341L26.9414 59.9742L32.5663 40.6069L45.4272 45.4341Z" fill="#FFCA61"/>
<defs>
<linearGradient id="paint0_linear" x1="39.1672" y1="49.1474" x2="29.5993" y2="32.9973" gradientUnits="userSpaceOnUse">
<stop stop-color="#FAAF40"/>
<stop offset="0.28" stop-color="#FAAB3D"/>
<stop offset="0.57" stop-color="#FC9E34"/>
<stop offset="0.87" stop-color="#FE8A26"/>
<stop offset="1" stop-color="#FF7E1E"/>
</linearGradient>
</defs>
</svg>
